<svg width="31" height="31" viewBox="0 0 31 31" fill="none" xmlns="http://www.w3.org/2000/svg">
<circle cx="15.5" cy="15.5" r="15.5" fill="#5CB85C"/>
<path d="M12.7143 8.88889H10.8571C10.3646 8.88889 9.89223 9.0879 9.54394 9.44213C9.19566 9.79637 9 10.2768 9 10.7778V22.1111C9 22.6121 9.19566 23.0925 9.54394 23.4468C9.89223 23.801 10.3646 24 10.8571 24H20.1429C20.6354 24 21.1078 23.801 21.4561 23.4468C21.8043 23.0925 22 22.6121 22 22.1111V10.7778C22 10.2768 21.8043 9.79637 21.4561 9.44213C21.1078 9.0879 20.6354 8.88889 20.1429 8.88889H18.2857M12.7143 8.88889C12.7143 9.38985 12.9099 9.8703 13.2582 10.2245C13.6065 10.5788 14.0789 10.7778 14.5714 10.7778H16.4286C16.9211 10.7778 17.3935 10.5788 17.7418 10.2245C18.0901 9.8703 18.2857 9.38985 18.2857 8.88889M12.7143 8.88889C12.7143 8.38792 12.9099 7.90748 13.2582 7.55324C13.6065 7.19901 14.0789 7 14.5714 7H16.4286C16.9211 7 17.3935 7.19901 17.7418 7.55324C18.0901 7.90748 18.2857 8.38792 18.2857 8.88889M15.5 15.5H18.2857M15.5 19.2778H18.2857M12.7143 15.5H12.7236M12.7143 19.2778H12.7236" stroke="white" stroke-width="1.5" stroke-linecap="round" stroke-linejoin="round"/>
</svg>
