<svg width="31" height="31" viewBox="0 0 31 31" fill="none" xmlns="http://www.w3.org/2000/svg">
<circle cx="15.5" cy="15.5" r="15.5" fill="#D39BF5"/>
<path d="M12.75 11.5556H10.875C10.3777 11.5556 9.90081 11.7429 9.54917 12.0763C9.19754 12.4097 9 12.8618 9 13.3333V22.2222C9 22.6937 9.19754 23.1459 9.54917 23.4793C9.90081 23.8127 10.3777 24 10.875 24H18.375C18.8723 24 19.3492 23.8127 19.7008 23.4793C20.0525 23.1459 20.25 22.6937 20.25 22.2222V20.4444" fill="#D39BF5"/>
<path d="M12.75 11.5556V18.6667C12.75 19.1382 12.9475 19.5903 13.2992 19.9237C13.6508 20.2571 14.1277 20.4444 14.625 20.4444H20.25M12.75 11.5556V9.77778C12.75 9.30628 12.9475 8.8541 13.2992 8.5207C13.6508 8.1873 14.1277 8 14.625 8H18.9244C19.173 8.00005 19.4114 8.09373 19.5872 8.26044L23.7253 12.184C23.9011 12.3507 23.9999 12.5767 24 12.8124V18.6667C24 19.1382 23.8025 19.5903 23.4508 19.9237C23.0992 20.2571 22.6223 20.4444 22.125 20.4444H20.25M12.75 11.5556H10.875C10.3777 11.5556 9.90081 11.7429 9.54917 12.0763C9.19754 12.4097 9 12.8618 9 13.3333V22.2222C9 22.6937 9.19754 23.1459 9.54917 23.4793C9.90081 23.8127 10.3777 24 10.875 24H18.375C18.8723 24 19.3492 23.8127 19.7008 23.4793C20.0525 23.1459 20.25 22.6937 20.25 22.2222V20.4444" stroke="white" stroke-width="1.5" stroke-linecap="round" stroke-linejoin="round"/>
</svg>
