<svg width="31" height="31" viewBox="0 0 31 31" fill="none" xmlns="http://www.w3.org/2000/svg">
<circle cx="15.5" cy="15.5" r="15.5" fill="#FFB017"/>
<path d="M11.5 10.6V7M18.7 10.6V7M10.6 14.2H13.75M23.2 13.75V10.6C23.2 10.1226 23.0104 9.66477 22.6728 9.32721C22.3352 8.98964 21.8774 8.8 21.4 8.8H8.8C8.32261 8.8 7.86477 8.98964 7.52721 9.32721C7.18964 9.66477 7 10.1226 7 10.6V21.4C7 21.8774 7.18964 22.3352 7.52721 22.6728C7.86477 23.0104 8.32261 23.2 8.8 23.2H12.4" stroke="white" stroke-width="1.5" stroke-linecap="round" stroke-linejoin="round"/>
<path d="M19.6 18.5V20.5L21.1 22M24.1 20.5C24.1 21.0909 23.9836 21.6761 23.7575 22.2221C23.5313 22.768 23.1998 23.2641 22.782 23.682C22.3641 24.0998 21.868 24.4313 21.3221 24.6575C20.7761 24.8836 20.191 25 19.6 25C19.0091 25 18.4239 24.8836 17.8779 24.6575C17.332 24.4313 16.8359 24.0998 16.418 23.682C16.0002 23.2641 15.6687 22.768 15.4425 22.2221C15.2164 21.6761 15.1 21.0909 15.1 20.5C15.1 19.3065 15.5741 18.1619 16.418 17.318C17.2619 16.4741 18.4065 16 19.6 16C20.7935 16 21.9381 16.4741 22.782 17.318C23.6259 18.1619 24.1 19.3065 24.1 20.5Z" stroke="white" stroke-width="1.5" stroke-linecap="round" stroke-linejoin="round"/>
</svg>
