<svg width="31" height="31" viewBox="0 0 31 31" fill="none" xmlns="http://www.w3.org/2000/svg">
<circle cx="15.5" cy="15.5" r="15.5" fill="#EA4335"/>
<path d="M12.3333 15.5L14.4444 17.6111L18.6667 13.3889M25 15.5C25 16.7476 24.7543 17.9829 24.2769 19.1355C23.7994 20.2881 23.0997 21.3354 22.2175 22.2175C21.3354 23.0997 20.2881 23.7994 19.1355 24.2769C17.9829 24.7543 16.7476 25 15.5 25C14.2524 25 13.0171 24.7543 11.8645 24.2769C10.7119 23.7994 9.66464 23.0997 8.78249 22.2175C7.90033 21.3354 7.20056 20.2881 6.72314 19.1355C6.24572 17.9829 6 16.7476 6 15.5C6 12.9804 7.00089 10.5641 8.78249 8.78249C10.5641 7.00089 12.9804 6 15.5 6C18.0196 6 20.4359 7.00089 22.2175 8.78249C23.9991 10.5641 25 12.9804 25 15.5Z" stroke="white" stroke-width="1.5" stroke-linecap="round" stroke-linejoin="round"/>
</svg>
