<svg width="31" height="31" viewBox="0 0 31 31" fill="none" xmlns="http://www.w3.org/2000/svg">
<circle cx="15.5" cy="15.5" r="15.5" fill="#1495F0"/>
<path d="M5.5603 21.5278C5.5603 20.2206 6.11139 18.9669 7.09233 18.0426C8.07327 17.1182 9.40371 16.5989 10.791 16.5989C12.1782 16.5989 13.5087 17.1182 14.4896 18.0426C15.4706 18.9669 16.0216 20.2206 16.0216 21.5278M13.7799 13.0783C13.7799 13.8253 13.465 14.5417 12.9045 15.0699C12.3439 15.5981 11.5837 15.8948 10.791 15.8948C9.99825 15.8948 9.238 15.5981 8.67746 15.0699C8.11692 14.5417 7.80202 13.8253 7.80202 13.0783C7.80202 12.3313 8.11692 11.6149 8.67746 11.0867C9.238 10.5585 9.99825 10.2618 10.791 10.2618C11.5837 10.2618 12.3439 10.5585 12.9045 11.0867C13.465 11.6149 13.7799 12.3313 13.7799 13.0783Z" stroke="white" stroke-width="1.5" stroke-linecap="round" stroke-linejoin="round"/>
<path d="M25.489 19.8772C25.489 18.57 24.9379 17.3163 23.957 16.3919C22.976 15.4676 21.6456 14.9483 20.2583 14.9483C18.8711 14.9483 17.5406 15.4676 16.5597 16.3919C16.0752 16.8485 15.6956 17.3854 15.4354 17.9693M23.2473 11.4277C23.2473 12.1746 22.9324 12.891 22.3719 13.4192C21.8113 13.9474 21.0511 14.2442 20.2583 14.2442C19.4656 14.2442 18.7054 13.9474 18.1448 13.4192C17.5843 12.891 17.2694 12.1746 17.2694 11.4277C17.2694 10.6807 17.5843 9.96428 18.1448 9.43608C18.7054 8.90788 19.4656 8.61115 20.2583 8.61115C21.0511 8.61115 21.8113 8.90788 22.3719 9.43608C22.9324 9.96428 23.2473 10.6807 23.2473 11.4277Z" stroke="white" stroke-width="1.5" stroke-linecap="round" stroke-linejoin="round"/>
</svg>
