<svg width="26" height="17" viewBox="0 0 26 17" fill="none" xmlns="http://www.w3.org/2000/svg">
<path d="M1.45703 16C1.45703 14.482 2.097 13.0261 3.23616 11.9526C4.37532 10.8792 5.92034 10.2761 7.53136 10.2761C9.14237 10.2761 10.6874 10.8792 11.8266 11.9526C12.9657 13.0261 13.6057 14.482 13.6057 16M11.0024 6.18765C11.0024 7.05512 10.6367 7.88706 9.98575 8.50045C9.33481 9.11384 8.45193 9.45844 7.53136 9.45844C6.61078 9.45844 5.7279 9.11384 5.07696 8.50045C4.42601 7.88706 4.06031 7.05512 4.06031 6.18765C4.06031 5.32018 4.42601 4.48824 5.07696 3.87485C5.7279 3.26146 6.61078 2.91686 7.53136 2.91686C8.45193 2.91686 9.33481 3.26146 9.98575 3.87485C10.6367 4.48824 11.0024 5.32018 11.0024 6.18765Z" stroke="white" stroke-width="1.5" stroke-linecap="round" stroke-linejoin="round"/>
<path d="M24.6001 14.0832C24.6001 12.5651 23.9601 11.1092 22.8209 10.0358C21.6818 8.96233 20.1368 8.35928 18.5257 8.35928C16.9147 8.35928 15.3697 8.96233 14.2305 10.0358C13.6679 10.5659 13.2271 11.1894 12.9249 11.8676M21.9968 4.27079C21.9968 5.13826 21.6311 5.9702 20.9801 6.58359C20.3292 7.19698 19.4463 7.54158 18.5257 7.54158C17.6052 7.54158 16.7223 7.19698 16.0713 6.58359C15.4204 5.9702 15.0547 5.13826 15.0547 4.27079C15.0547 3.40332 15.4204 2.57138 16.0713 1.95799C16.7223 1.3446 17.6052 1 18.5257 1C19.4463 1 20.3292 1.3446 20.9801 1.95799C21.6311 2.57138 21.9968 3.40332 21.9968 4.27079Z" stroke="white" stroke-width="1.5" stroke-linecap="round" stroke-linejoin="round"/>
</svg>
