<svg width="17" height="13" viewBox="0 0 17 13" fill="none" xmlns="http://www.w3.org/2000/svg">
<path d="M10.8544 6.49968C10.8544 7.12484 10.6061 7.72438 10.164 8.16644C9.72198 8.60849 9.12243 8.85683 8.49728 8.85683C7.87213 8.85683 7.27258 8.60849 6.83053 8.16644C6.38848 7.72438 6.14014 7.12484 6.14014 6.49968C6.14014 5.87453 6.38848 5.27498 6.83053 4.83293C7.27258 4.39088 7.87213 4.14254 8.49728 4.14254C9.12243 4.14254 9.72198 4.39088 10.164 4.83293C10.6061 5.27498 10.8544 5.87453 10.8544 6.49968V6.49968Z" stroke="black" stroke-width="1.5" stroke-linecap="round" stroke-linejoin="round"/>
<path d="M1 6.5C2.001 3.31236 4.97964 1 8.49729 1C12.0157 1 14.9936 3.31236 15.9946 6.5C14.9936 9.68764 12.0157 12 8.49729 12C4.97964 12 2.001 9.68764 1 6.5Z" stroke="black" stroke-width="1.5" stroke-linecap="round" stroke-linejoin="round"/>
</svg>
