<svg width="17" height="18" viewBox="0 0 17 18" fill="none" xmlns="http://www.w3.org/2000/svg">
<path d="M4.75 4.55556H2.875C2.37772 4.55556 1.90081 4.74286 1.54917 5.07625C1.19754 5.40965 1 5.86184 1 6.33333V15.2222C1 15.6937 1.19754 16.1459 1.54917 16.4793C1.90081 16.8127 2.37772 17 2.875 17H10.375C10.8723 17 11.3492 16.8127 11.7008 16.4793C12.0525 16.1459 12.25 15.6937 12.25 15.2222V13.4444" fill="#D39BF5"/>
<path d="M4.75 4.55556V11.6667C4.75 12.1382 4.94754 12.5903 5.29918 12.9237C5.65081 13.2571 6.12772 13.4444 6.625 13.4444H12.25M4.75 4.55556V2.77778C4.75 2.30628 4.94754 1.8541 5.29918 1.5207C5.65081 1.1873 6.12772 1 6.625 1H10.9244C11.173 1.00005 11.4114 1.09373 11.5872 1.26044L15.7253 5.184C15.9011 5.35066 15.9999 5.57672 16 5.81244V11.6667C16 12.1382 15.8025 12.5903 15.4508 12.9237C15.0992 13.2571 14.6223 13.4444 14.125 13.4444H12.25M4.75 4.55556H2.875C2.37772 4.55556 1.90081 4.74286 1.54917 5.07625C1.19754 5.40965 1 5.86184 1 6.33333V15.2222C1 15.6937 1.19754 16.1459 1.54917 16.4793C1.90081 16.8127 2.37772 17 2.875 17H10.375C10.8723 17 11.3492 16.8127 11.7008 16.4793C12.0525 16.1459 12.25 15.6937 12.25 15.2222V13.4444" stroke="white" stroke-width="1.5" stroke-linecap="round" stroke-linejoin="round"/>
</svg>
