<svg width="19" height="20" viewBox="0 0 19 20" fill="none" xmlns="http://www.w3.org/2000/svg">
<path id="Vector" d="M5.25 5V13C5.25 13.5304 5.47388 14.0391 5.8724 14.4142C6.27091 14.7893 6.81141 15 7.375 15H13.75M5.25 5V3C5.25 2.46957 5.47388 1.96086 5.8724 1.58579C6.27091 1.21071 6.81141 1 7.375 1H12.2476C12.5294 1.00006 12.7996 1.10545 12.9988 1.293L17.6887 5.707C17.888 5.89449 17.9999 6.1488 18 6.414V13C18 13.5304 17.7761 14.0391 17.3776 14.4142C16.9791 14.7893 16.4386 15 15.875 15H13.75M5.25 5H3.125C2.56141 5 2.02091 5.21071 1.6224 5.58579C1.22388 5.96086 1 6.46957 1 7V17C1 17.5304 1.22388 18.0391 1.6224 18.4142C2.02091 18.7893 2.56141 19 3.125 19H11.625C12.1886 19 12.7291 18.7893 13.1276 18.4142C13.5261 18.0391 13.75 17.5304 13.75 17V15"  stroke-width="1.5" stroke-linecap="round" stroke-linejoin="round"/>
</svg>
