<svg width="19" height="20" viewBox="0 0 19 20" fill="none" xmlns="http://www.w3.org/2000/svg">
<path d="M5.5 4.6V1M12.7 4.6V1M4.6 8.2H7.75M17.2 7.75V4.6C17.2 4.12261 17.0104 3.66477 16.6728 3.32721C16.3352 2.98964 15.8774 2.8 15.4 2.8H2.8C2.32261 2.8 1.86477 2.98964 1.52721 3.32721C1.18964 3.66477 1 4.12261 1 4.6V15.4C1 15.8774 1.18964 16.3352 1.52721 16.6728C1.86477 17.0104 2.32261 17.2 2.8 17.2H6.4" stroke="white" stroke-width="1.5" stroke-linecap="round" stroke-linejoin="round"/>
<path d="M13.6 12.5V14.5L15.1 16M18.1 14.5C18.1 15.0909 17.9836 15.6761 17.7575 16.2221C17.5313 16.768 17.1998 17.2641 16.782 17.682C16.3641 18.0998 15.868 18.4313 15.3221 18.6575C14.7761 18.8836 14.191 19 13.6 19C13.0091 19 12.4239 18.8836 11.8779 18.6575C11.332 18.4313 10.8359 18.0998 10.418 17.682C10.0002 17.2641 9.66869 16.768 9.44255 16.2221C9.2164 15.6761 9.10001 15.0909 9.10001 14.5C9.10001 13.3065 9.57411 12.1619 10.418 11.318C11.2619 10.4741 12.4065 10 13.6 10C14.7935 10 15.9381 10.4741 16.782 11.318C17.6259 12.1619 18.1 13.3065 18.1 14.5Z" stroke="white" stroke-width="1.5" stroke-linecap="round" stroke-linejoin="round"/>
</svg>
