<svg width="15" height="19" viewBox="0 0 15 19" fill="none" xmlns="http://www.w3.org/2000/svg">
<path d="M4.71429 2.88889H2.85714C2.3646 2.88889 1.89223 3.0879 1.54394 3.44213C1.19566 3.79637 1 4.27681 1 4.77778V16.1111C1 16.6121 1.19566 17.0925 1.54394 17.4468C1.89223 17.801 2.3646 18 2.85714 18H12.1429C12.6354 18 13.1078 17.801 13.4561 17.4468C13.8043 17.0925 14 16.6121 14 16.1111V4.77778C14 4.27681 13.8043 3.79637 13.4561 3.44213C13.1078 3.0879 12.6354 2.88889 12.1429 2.88889H10.2857M4.71429 2.88889C4.71429 3.38985 4.90995 3.8703 5.25823 4.22454C5.60651 4.57877 6.07888 4.77778 6.57143 4.77778H8.42857C8.92112 4.77778 9.39349 4.57877 9.74177 4.22454C10.0901 3.8703 10.2857 3.38985 10.2857 2.88889M4.71429 2.88889C4.71429 2.38792 4.90995 1.90748 5.25823 1.55324C5.60651 1.19901 6.07888 1 6.57143 1H8.42857C8.92112 1 9.39349 1.19901 9.74177 1.55324C10.0901 1.90748 10.2857 2.38792 10.2857 2.88889M7.5 9.5H10.2857M7.5 13.2778H10.2857M4.71429 9.5H4.72357M4.71429 13.2778H4.72357" stroke="white" stroke-width="1.5" stroke-linecap="round" stroke-linejoin="round"/>
</svg>
